# xmcd CD database file
#
# Track frame offsets:
#	150
#	40673
#	70284
#	102589
#	116432
#	150780
#	172103
#	182786
#	213724
#
# Disc length: 3528 seconds
#
# Revision: 0
# Processed by: cddbd v1.5.2PL0 Copyright (c) Steve Scherf et al.
# Submitted via: CDex 1.51
#
DISCID=790dc609
DTITLE=Haddouk Trio - Live Au Satellit Café
DYEAR=2006
DGENRE=Jazz
TTITLE0=Nacarat
TTITLE1=Alma Celesta
TTITLE2=Shamanimal
TTITLE3=Le Gibbon
TTITLE4=Gopi
TTITLE5=Polar Blues
TTITLE6=O'Shehan Drum
TTITLE7=Bille En Tête
TTITLE8=Barca Solaris
EXTD=YEAR: 2006
EXTT0=
EXTT1=
EXTT2=
EXTT3=
EXTT4=
EXTT5=
EXTT6=
EXTT7=
EXTT8=
PLAYORDER=
